<?xml version="1.0" standalone="no"?>
<!DOCTYPE svg PUBLIC "-//W3C//DTD SVG 20010904//EN"
 "http://www.w3.org/TR/2001/REC-SVG-20010904/DTD/svg10.dtd">
<svg version="1.0" xmlns="http://www.w3.org/2000/svg"
 width="180.000000pt" height="180.000000pt" viewBox="0 0 180.000000 180.000000"
 preserveAspectRatio="xMidYMid meet">
<metadata>
Created by potrace 1.11, written by Peter Selinger 2001-2013
</metadata>
<g transform="translate(0.000000,180.000000) scale(0.100000,-0.100000)"
fill="#000000" stroke="none">
<path d="M735 1429 c-5 -7 5 -8 32 -3 51 9 54 14 10 14 -20 0 -39 -5 -42 -11z"/>
<path d="M1531 1384 c-12 -15 -21 -37 -21 -49 0 -12 9 -34 21 -49 39 -50 122
-26 135 39 14 74 -88 118 -135 59z"/>
<path d="M225 1395 c-5 -2 -22 -6 -37 -9 -16 -4 -28 -11 -28 -16 0 -15 56 -40
90 -40 55 0 104 49 64 64 -16 6 -71 7 -89 1z"/>
<path d="M734 1385 c-162 -35 -258 -126 -375 -354 -30 -58 -36 -78 -27 -88 8
-10 8 -17 1 -24 -7 -7 -27 2 -64 30 -68 51 -104 60 -131 33 -44 -43 12 -116
167 -217 198 -130 434 -216 800 -291 194 -40 413 -56 478 -35 51 17 61 55 23
88 -26 22 -42 25 -138 28 -20 0 -40 3 -43 6 -3 4 1 35 9 70 87 379 -10 599
-310 708 -161 59 -272 72 -390 46z"/>
<path d="M212 1304 c-18 -9 -37 -25 -43 -35 -9 -18 -5 -19 55 -19 36 0 77 5
92 10 27 11 27 11 8 30 -27 28 -73 33 -112 14z"/>
<path d="M1447 1185 c-23 -13 -26 -19 -17 -35 8 -16 15 -18 35 -10 14 5 59 8
100 5 104 -5 175 -47 218 -130 l16 -30 1 46 c0 42 -4 50 -41 84 -59 53 -118
76 -208 81 -57 4 -83 1 -104 -11z"/>
<path d="M1518 908 c-10 -9 -18 -37 -22 -83 -4 -38 -9 -84 -12 -101 -5 -28 -3
-32 21 -38 18 -5 33 -1 52 14 14 11 34 20 45 20 34 0 68 45 68 90 0 23 -5 50
-10 61 -23 41 -108 63 -142 37z"/>
<path d="M1790 770 c0 -19 -84 -101 -125 -123 -30 -16 -58 -21 -115 -22 -67 0
-89 -7 -90 -26 0 -3 33 -9 74 -13 92 -8 162 15 224 74 35 34 42 47 42 80 0 22
-2 40 -5 40 -3 0 -5 -5 -5 -10z"/>
<path d="M56 739 c-34 -39 -33 -71 2 -110 25 -28 32 -31 65 -25 69 13 89 85
38 137 -39 38 -72 38 -105 -2z"/>
<path d="M604 566 c11 -9 27 -16 35 -16 21 0 2 16 -29 24 -24 7 -24 6 -6 -8z"/>
<path d="M891 464 c-45 -20 -295 -98 -398 -125 -97 -25 -173 -68 -283 -162
-86 -73 -94 -91 -65 -147 20 -38 47 -39 170 -6 149 40 188 59 302 148 120 95
241 176 351 236 41 22 70 42 65 45 -4 2 -24 8 -43 12 -19 3 -42 8 -50 10 -8 2
-30 -3 -49 -11z"/>
</g>
</svg>
