<svg id="Layer_1" data-name="Layer 1" xmlns="http://www.w3.org/2000/svg" viewBox="0 0 1491.02 440.13"><defs><style>.cls-1{fill:#0d0c0d;}.cls-2,.cls-4,.cls-5{fill:#010101;fill-opacity:0;}.cls-2,.cls-5{stroke:#fff;}.cls-2{stroke-width:5px;}.cls-3{fill:#141212;}.cls-4{stroke:#fffffd;}.cls-4,.cls-5{stroke-width:3px;}</style></defs><title>Artboard 1logo</title><g id="EJC"><path class="cls-1" d="M193.19,229.8h58v55.53H127V64.08H251.14v55.53h-58V147H233.7v55.53H193.19Z"/><path class="cls-2" d="M193.19,229.8h58v55.53H127V64.08H251.14v55.53h-58V147H233.7v55.53H193.19Z"/><path class="cls-1" d="M337.11,64.08h78.65V216q-.15,19.88-8.42,35.43a63.38,63.38,0,0,1-9.21,13,59.5,59.5,0,0,1-14.22,11.31,78.93,78.93,0,0,1-20.24,8,110.79,110.79,0,0,1-27.43,3,99.24,99.24,0,0,1-27.93-3.6,78.38,78.38,0,0,1-21.55-9.79A69,69,0,0,1,271,259.08a82.91,82.91,0,0,1-10.59-17,85.26,85.26,0,0,1-6.1-18.15,96.49,96.49,0,0,1-2.18-17.5,75.35,75.35,0,0,1,1-15.19A38,38,0,0,1,256.72,180q7-3.74,14.95-7.2,6.82-2.88,15.45-6a145.2,145.2,0,0,1,17.78-5.11A96.54,96.54,0,0,0,301,180.59a56.83,56.83,0,0,0-.36,7.63,39.24,39.24,0,0,0,.8,7.35,21.55,21.55,0,0,0,2.32,6.26,12.67,12.67,0,0,0,4.35,4.54,16.6,16.6,0,0,0,10.74,2.88,20.84,20.84,0,0,0,9.29-3.24,22.77,22.77,0,0,0,6.53-6.34q2.47-3.67,2.47-6.41Z"/><path class="cls-2" d="M337.11,64.08h78.65V216q-.15,19.88-8.42,35.43a63.38,63.38,0,0,1-9.21,13,59.5,59.5,0,0,1-14.22,11.31,78.93,78.93,0,0,1-20.24,8,110.79,110.79,0,0,1-27.43,3,99.24,99.24,0,0,1-27.93-3.6,78.38,78.38,0,0,1-21.55-9.79A69,69,0,0,1,271,259.08a82.91,82.91,0,0,1-10.59-17,85.26,85.26,0,0,1-6.1-18.15,96.49,96.49,0,0,1-2.18-17.5,75.35,75.35,0,0,1,1-15.19A38,38,0,0,1,256.72,180q7-3.74,14.95-7.2,6.82-2.88,15.45-6a145.2,145.2,0,0,1,17.78-5.11A96.54,96.54,0,0,0,301,180.59a56.83,56.83,0,0,0-.36,7.63,39.24,39.24,0,0,0,.8,7.35,21.55,21.55,0,0,0,2.32,6.26,12.67,12.67,0,0,0,4.35,4.54,16.6,16.6,0,0,0,10.74,2.88,20.84,20.84,0,0,0,9.29-3.24,22.77,22.77,0,0,0,6.53-6.34q2.47-3.67,2.47-6.41Z"/><path class="cls-1" d="M546.94,182.25l27.33,82.28q-8.54,8.11-25,15.16a91,91,0,0,1-36.23,7q-34.87,0-64.41-31.17T419.12,176q0-49.11,29.89-81.28t65.48-32.17a90.06,90.06,0,0,1,32,6.26,81.93,81.93,0,0,1,27.76,16.94l-27.33,76.72q-11.24-6.12-26.62-6.12-20.93,0-20.92,16.37a15.41,15.41,0,0,0,5.69,12.53q5.69,4.7,15.51,4.7Q535.84,189.94,546.94,182.25Z"/><path class="cls-2" d="M546.94,182.25l27.33,82.28q-8.54,8.11-25,15.16a91,91,0,0,1-36.23,7q-34.87,0-64.41-31.17T419.12,176q0-49.11,29.89-81.28t65.48-32.17a90.06,90.06,0,0,1,32,6.26,81.93,81.93,0,0,1,27.76,16.94l-27.33,76.72q-11.24-6.12-26.62-6.12-20.93,0-20.92,16.37a15.41,15.41,0,0,0,5.69,12.53q5.69,4.7,15.51,4.7Q535.84,189.94,546.94,182.25Z"/><path class="cls-1" d="M746.69,168.8a92.66,92.66,0,0,0,9.93-14.17,23,23,0,0,0,2.8-10.69q0-6.52-3.56-10.23T745.78,130q-14.55,0-14.55,25.77h-74v-2.58q0-42.75,23.8-66.7t66.54-24q40,0,64.88,22.43,24.86,22,24.86,58.36A70.11,70.11,0,0,1,828.62,178q-8.72,15.69-28.88,32.06L781.1,225.65H837v61.09H647.71Z"/><path class="cls-2" d="M746.69,168.8a92.66,92.66,0,0,0,9.93-14.17,23,23,0,0,0,2.8-10.69q0-6.52-3.56-10.23T745.78,130q-14.55,0-14.55,25.77h-74v-2.58q0-42.75,23.8-66.7t66.54-24q40,0,64.88,22.43,24.86,22,24.86,58.36A70.11,70.11,0,0,1,828.62,178q-8.72,15.69-28.88,32.06L781.1,225.65H837v61.09H647.71Z"/><path class="cls-1" d="M914.48,174.49q0,23.63,4.21,34.34t13.22,10.71q9.16,0,13.22-10.71t4.06-34.34q0-23.63-4.06-34.34t-13.22-10.71q-9,0-13.22,10.56T914.48,174.49Zm-75.62,0q0-52.28,24.81-82,24.81-30,68.23-30T1000,92.23q24.81,29.39,24.81,82.26T1000,257q-24.52,29.69-68.09,29.69t-68.23-30Q838.86,226.48,838.86,174.49Z"/><path class="cls-2" d="M914.48,174.49q0,23.63,4.21,34.34t13.22,10.71q9.16,0,13.22-10.71t4.06-34.34q0-23.63-4.06-34.34t-13.22-10.71q-9,0-13.22,10.56T914.48,174.49Zm-75.62,0q0-52.28,24.81-82,24.81-30,68.23-30T1000,92.23q24.81,29.39,24.81,82.26T1000,257q-24.52,29.69-68.09,29.69t-68.23-30Q838.86,226.48,838.86,174.49Z"/><path class="cls-1" d="M1043.7,130.69l115.56-68.87V286.73h-81.59v-156Z"/><path class="cls-2" d="M1043.7,130.69l115.56-68.87V286.73h-81.59v-156Z"/><path class="cls-1" d="M1269.8,129.24q-8.43,0-13.48,5.87t-5,15.36q0,9.18,5,15.06t13.48,5.87a17,17,0,0,0,13.33-5.65q5-5.65,5-15.28,0-9.49-5-15.36A16.7,16.7,0,0,0,1269.8,129.24Zm-18.22,93.35q-1.66,0-3.16.15t-5,.15q-32.67,0-51.27-18.29t-18.59-50.66A90.14,90.14,0,0,1,1188.65,103a88,88,0,0,1,33.88-30.11q20.63-10.39,47-10.39,41.86,0,68.36,24.69,26.8,24.69,26.8,63.54,0,21.83-10.69,45-10.84,22.28-42.61,60.08l-25.9,30.87H1182.17Z"/><path class="cls-2" d="M1269.8,129.24q-8.43,0-13.48,5.87t-5,15.36q0,9.18,5,15.06t13.48,5.87a17,17,0,0,0,13.33-5.65q5-5.65,5-15.28,0-9.49-5-15.36A16.7,16.7,0,0,0,1269.8,129.24Zm-18.22,93.35q-1.66,0-3.16.15t-5,.15q-32.67,0-51.27-18.29t-18.59-50.66A90.14,90.14,0,0,1,1188.65,103a88,88,0,0,1,33.88-30.11q20.63-10.39,47-10.39,41.86,0,68.36,24.69,26.8,24.69,26.8,63.54,0,21.83-10.69,45-10.84,22.28-42.61,60.08l-25.9,30.87H1182.17Z"/><path class="cls-3" d="M1279.92,1.59c21.64-.94,42.12,5.88,61.38,15.11,23.13,11.72,35.76,33.61,36.43,62,.06,2.6-2.69,35.09-6.27,44.95-.41,1.24-.23.73-.52,1.55,9.69.3,28.58-2.23,30.83,11,.86,7.42-6,10.94-16.92,12-33.34,3.19-104.72-16.58-111.79-18.76-32-9.88-68-24.9-92.1-49.31-5.08-5.14-7.47-15.13.37-18.9,8.17-3.93,18.06,5.09,23.86,9.59l4.14,3.17-3.15-3c-3.24-4,19.45-39.82,22.77-43.85C1243,10.28,1258.63,3.66,1279.92,1.59Z"/><path class="cls-4" d="M1279.92,1.59c21.64-.94,42.12,5.88,61.38,15.11,23.13,11.72,35.76,33.61,36.43,62,.06,2.6-2.69,35.09-6.27,44.95-.41,1.24-.23.73-.52,1.55,9.69.3,28.58-2.23,30.83,11,.86,7.42-6,10.94-16.92,12-33.34,3.19-104.72-16.58-111.79-18.76-32-9.88-68-24.9-92.1-49.31-5.08-5.14-7.47-15.13.37-18.9,8.17-3.93,18.06,5.09,23.86,9.59l4.14,3.17-3.15-3c-3.24-4,19.45-39.82,22.77-43.85C1243,10.28,1258.63,3.66,1279.92,1.59Z"/></g><g id="Newark"><path class="cls-1" d="M931,326.41q4.81,10,13.38,37.43,7.49,24.24,14.6,36.8,2.58,15.81-4.72,19.33-14,.11-20.23-13.81-4.78-12.27-9.31-24.57a102.83,102.83,0,0,0-14.19-37.86Q900.26,359,900.25,387.31q1,23.1,1.79,46.48a16.15,16.15,0,0,1-9.73,4.78,16.88,16.88,0,0,1-10.47-2.79,35.19,35.19,0,0,1-7.71-13.52q-1.21-4.47-2.12-16.36-.4-1.49-8.19-31.31-4.67-18.91-9.88-30.38-1-4.75,3.92-6.76a32,32,0,0,1,8.79-1.38q4-1.16,9.5,2t8.34,3.13a52.86,52.86,0,0,1,18.08-26Q922.64,311.93,931,326.41Z"/><path class="cls-5" d="M931,326.41q4.81,10,13.38,37.43,7.49,24.24,14.6,36.8,2.58,15.81-4.72,19.33-14,.11-20.23-13.81-4.78-12.27-9.31-24.57a102.83,102.83,0,0,0-14.19-37.86Q900.26,359,900.25,387.31q1,23.1,1.79,46.48a16.15,16.15,0,0,1-9.73,4.78,16.88,16.88,0,0,1-10.47-2.79,35.19,35.19,0,0,1-7.71-13.52q-1.21-4.47-2.12-16.36-.4-1.49-8.19-31.31-4.67-18.91-9.88-30.38-1-4.75,3.92-6.76a32,32,0,0,1,8.79-1.38q4-1.16,9.5,2t8.34,3.13a52.86,52.86,0,0,1,18.08-26Q922.64,311.93,931,326.41Z"/><path class="cls-1" d="M1049.12,407.79q-3.11,7.19-12.3,12.3a49.83,49.83,0,0,1-19.53,6.14,44.37,44.37,0,0,1-9.69-.06q-9.62.69-22.34-8.12T967,397.54q-6.2-8.57-7.7-23.71-2.59-26.26,8.31-44.92,1-5.7,9.56-12.92A49.25,49.25,0,0,1,995,306.06q14.64-1.45,28.73,7T1039.94,333a9,9,0,0,1,.83,3.23q.7,7.07-2.92,11.76a169.82,169.82,0,0,1-27.65,15.61q-16,7.31-23.58,7.81-.09,9.44,6.1,19.15t13.58,12.3q2.29,2.58,6.84,2.13a17.33,17.33,0,0,0,11.39-6q5.57-13.3,16.93-14.42a8.43,8.43,0,0,1,5.48,1.24q5.4.49,6.1,7.56Q1053.72,400.19,1049.12,407.79Zm-34.74-75.6q-8.64-12.66-14.25-10.06-18.21,9.19-17.39,17.52a4.72,4.72,0,0,0,3.2,4Q998.1,343,1014.37,332.19Z"/><path class="cls-5" d="M1049.12,407.79q-3.11,7.19-12.3,12.3a49.83,49.83,0,0,1-19.53,6.14,44.37,44.37,0,0,1-9.69-.06q-9.62.69-22.34-8.12T967,397.54q-6.2-8.57-7.7-23.71-2.59-26.26,8.31-44.92,1-5.7,9.56-12.92A49.25,49.25,0,0,1,995,306.06q14.64-1.45,28.73,7T1039.94,333a9,9,0,0,1,.83,3.23q.7,7.07-2.92,11.76a169.82,169.82,0,0,1-27.65,15.61q-16,7.31-23.58,7.81-.09,9.44,6.1,19.15t13.58,12.3q2.29,2.58,6.84,2.13a17.33,17.33,0,0,0,11.39-6q5.57-13.3,16.93-14.42a8.43,8.43,0,0,1,5.48,1.24q5.4.49,6.1,7.56Q1053.72,400.19,1049.12,407.79Zm-34.74-75.6q-8.64-12.66-14.25-10.06-18.21,9.19-17.39,17.52a4.72,4.72,0,0,0,3.2,4Q998.1,343,1014.37,332.19Z"/><path class="cls-1" d="M1171.91,301.08a606.77,606.77,0,0,1,2.8,64.48q-.17,31.88-3.13,38,.09,6.11-9.75,7.08a17.59,17.59,0,0,1-5.12-.26q-2.6,2-13.56-9.49a201.28,201.28,0,0,1-21.43-27.33q-4.9,4.56-5.83,15.87-1.66,16.73-2.24,18.58-2.69,8.93-11.52,9.8a37.11,37.11,0,0,1-4.06.15q-3.51.6-13.35-16.4a278.58,278.58,0,0,1-18-37.86L1046,311.48q.13-6.39,8.21-7.18a19.57,19.57,0,0,1,10.4,2q9.33,6.73,15.72,25,7.52,21.95,11.93,27.88,3.89-4.46,5.37-15.32,1.46-13.65,2.7-16.58,2.79-7.92,11.37-8.77a23.57,23.57,0,0,1,4.59.06q9.51,5.94,15.4,19.13,9.26,21.52,9.56,22,2.37,5.88,4.89,5.64.51,0,.94-.86,5.19-14.53,4.44-35.11-1-31.25-.89-32.29,4.68-6.84,10.23-7.38a8.77,8.77,0,0,1,7.41,2.71A13.82,13.82,0,0,1,1171.91,301.08Z"/><path class="cls-5" d="M1171.91,301.08a606.77,606.77,0,0,1,2.8,64.48q-.17,31.88-3.13,38,.09,6.11-9.75,7.08a17.59,17.59,0,0,1-5.12-.26q-2.6,2-13.56-9.49a201.28,201.28,0,0,1-21.43-27.33q-4.9,4.56-5.83,15.87-1.66,16.73-2.24,18.58-2.69,8.93-11.52,9.8a37.11,37.11,0,0,1-4.06.15q-3.51.6-13.35-16.4a278.58,278.58,0,0,1-18-37.86L1046,311.48q.13-6.39,8.21-7.18a19.57,19.57,0,0,1,10.4,2q9.33,6.73,15.72,25,7.52,21.95,11.93,27.88,3.89-4.46,5.37-15.32,1.46-13.65,2.7-16.58,2.79-7.92,11.37-8.77a23.57,23.57,0,0,1,4.59.06q9.51,5.94,15.4,19.13,9.26,21.52,9.56,22,2.37,5.88,4.89,5.64.51,0,.94-.86,5.19-14.53,4.44-35.11-1-31.25-.89-32.29,4.68-6.84,10.23-7.38a8.77,8.77,0,0,1,7.41,2.71A13.82,13.82,0,0,1,1171.91,301.08Z"/><path class="cls-1" d="M1283.35,386.69a6.42,6.42,0,0,1,1.64,3.66q.3,3-2.54,6.5t-5.87,3.77q-5,.5-13.28-5.44a58.17,58.17,0,0,1-14.21-14.79q-.74,5.43-6.59,9.45a27.66,27.66,0,0,1-13.17,4.74q-9.59.95-20.87-4.82-12.11-6.45-12.93-14.78a8.39,8.39,0,0,1,.05-2,81,81,0,0,1-4.9-21.18,91.65,91.65,0,0,1,4.21-38.66q6.21-18.46,17.78-25.21A35.82,35.82,0,0,1,1227,283.4q17.67-1.74,24.55,8.54a282.1,282.1,0,0,1,7.74,47.42,101,101,0,0,0,9.77,28Q1276.52,382,1283.35,386.69Zm-40-15.17q-.44-9.64-1.39-19.24a244.19,244.19,0,0,0-6.05-36.75q-3.91-15-7.44-14.69l-4.8.47q-6.69,4.48-9.93,18.19a89.84,89.84,0,0,0-1.67,29.61,80.54,80.54,0,0,0,3.46,17q-.62,11.79,13.77,10.37A34.24,34.24,0,0,0,1243.36,371.52Z"/><path class="cls-5" d="M1283.35,386.69a6.42,6.42,0,0,1,1.64,3.66q.3,3-2.54,6.5t-5.87,3.77q-5,.5-13.28-5.44a58.17,58.17,0,0,1-14.21-14.79q-.74,5.43-6.59,9.45a27.66,27.66,0,0,1-13.17,4.74q-9.59.95-20.87-4.82-12.11-6.45-12.93-14.78a8.39,8.39,0,0,1,.05-2,81,81,0,0,1-4.9-21.18,91.65,91.65,0,0,1,4.21-38.66q6.21-18.46,17.78-25.21A35.82,35.82,0,0,1,1227,283.4q17.67-1.74,24.55,8.54a282.1,282.1,0,0,1,7.74,47.42,101,101,0,0,0,9.77,28Q1276.52,382,1283.35,386.69Zm-40-15.17q-.44-9.64-1.39-19.24a244.19,244.19,0,0,0-6.05-36.75q-3.91-15-7.44-14.69l-4.8.47q-6.69,4.48-9.93,18.19a89.84,89.84,0,0,0-1.67,29.61,80.54,80.54,0,0,0,3.46,17q-.62,11.79,13.77,10.37A34.24,34.24,0,0,0,1243.36,371.52Z"/><path class="cls-1" d="M1369.47,298.4a9.41,9.41,0,0,1,1.76,4.92,11.67,11.67,0,0,1-4.76,11.18,9.44,9.44,0,0,1-5.86,2.62q-8.84.87-15.31-7.92a18.6,18.6,0,0,0-5.82-7.33q-3.86-2.93-6.59-2.15a19.78,19.78,0,0,0-10.65,8.32,19,19,0,0,0-3.36,12.44,12.17,12.17,0,0,0,1.18,4.22,221.86,221.86,0,0,0,1.13,26.91,204.6,204.6,0,0,0,7,37.8q.85,6-12.53,7.36a37,37,0,0,1-6.11.09q-12.64-4.1-14.16-19.51-.27-2.78-.35-8.76t-.38-9q-.7-7.07-3.14-11.16-4.48-9.24-7.57-25-2.79-12.73-5.34-25.73,1.93-6.31,9-7a29,29,0,0,1,9.79,1.07q4.72,1.32,5,4.35,1.06.4,2.7-2.31a22.94,22.94,0,0,0,2.56-6.37,31.08,31.08,0,0,1,6.21-9.41q3.93-4.08,6.76-3.85a20.13,20.13,0,0,1,3.26-.58q10.6-1,24.47,6.38T1369.47,298.4Z"/><path class="cls-5" d="M1369.47,298.4a9.41,9.41,0,0,1,1.76,4.92,11.67,11.67,0,0,1-4.76,11.18,9.44,9.44,0,0,1-5.86,2.62q-8.84.87-15.31-7.92a18.6,18.6,0,0,0-5.82-7.33q-3.86-2.93-6.59-2.15a19.78,19.78,0,0,0-10.65,8.32,19,19,0,0,0-3.36,12.44,12.17,12.17,0,0,0,1.18,4.22,221.86,221.86,0,0,0,1.13,26.91,204.6,204.6,0,0,0,7,37.8q.85,6-12.53,7.36a37,37,0,0,1-6.11.09q-12.64-4.1-14.16-19.51-.27-2.78-.35-8.76t-.38-9q-.7-7.07-3.14-11.16-4.48-9.24-7.57-25-2.79-12.73-5.34-25.73,1.93-6.31,9-7a29,29,0,0,1,9.79,1.07q4.72,1.32,5,4.35,1.06.4,2.7-2.31a22.94,22.94,0,0,0,2.56-6.37,31.08,31.08,0,0,1,6.21-9.41q3.93-4.08,6.76-3.85a20.13,20.13,0,0,1,3.26-.58q10.6-1,24.47,6.38T1369.47,298.4Z"/><path class="cls-1" d="M1391.68,218.71q12.49,64.54,15.09,85.7,20.59-34.15,35.55-47.87a19.77,19.77,0,0,1,12.13,1.48q5.61,2.63,6.16,8.19a14.21,14.21,0,0,1-1.32,7.27q-12.44,16-32.82,47.09a297.78,297.78,0,0,1,30.08,10.29q20.69,8.15,29.62,10.84,2.9,1,3.3,5a14.83,14.83,0,0,1-2,8.48q-2.36,4.44-9.18,5.11a18.62,18.62,0,0,1-10.12-1.8q-12.21-4.91-24.65-9.55a243.66,243.66,0,0,0-28.69-9.15,120.45,120.45,0,0,1,4.89,23.73q1,10.1-.16,16.46t-3.5,5.83a9,9,0,0,1-3.94,1.41q-9.09.9-16.59-15.7-7.12-15.36-9.67-38.56-7.27-60.72-18.16-111.65-.55-5.55,7.18-12.44a8.18,8.18,0,0,1,3.44-1.36q3.28-.32,6.71,3.42T1391.68,218.71Z"/><path class="cls-5" d="M1391.68,218.71q12.49,64.54,15.09,85.7,20.59-34.15,35.55-47.87a19.77,19.77,0,0,1,12.13,1.48q5.61,2.63,6.16,8.19a14.21,14.21,0,0,1-1.32,7.27q-12.44,16-32.82,47.09a297.78,297.78,0,0,1,30.08,10.29q20.69,8.15,29.62,10.84,2.9,1,3.3,5a14.83,14.83,0,0,1-2,8.48q-2.36,4.44-9.18,5.11a18.62,18.62,0,0,1-10.12-1.8q-12.21-4.91-24.65-9.55a243.66,243.66,0,0,0-28.69-9.15,120.45,120.45,0,0,1,4.89,23.73q1,10.1-.16,16.46t-3.5,5.83a9,9,0,0,1-3.94,1.41q-9.09.9-16.59-15.7-7.12-15.36-9.67-38.56-7.27-60.72-18.16-111.65-.55-5.55,7.18-12.44a8.18,8.18,0,0,1,3.44-1.36q3.28-.32,6.71,3.42T1391.68,218.71Z"/></g></svg>